<?xml version="1.0" encoding="UTF-8" standalone="no"?>
<svg width="20px" height="17px" viewBox="0 0 20 17" version="1.1" xmlns="http://www.w3.org/2000/svg" xmlns:xlink="http://www.w3.org/1999/xlink" xmlns:sketch="http://www.bohemiancoding.com/sketch/ns">
    <!-- Generator: Sketch 3.5.2 (25235) - http://www.bohemiancoding.com/sketch -->
    <title>Shape</title>
    <desc>Created with Sketch.</desc>
    <defs></defs>
    <g id="Lister-page" stroke="none" stroke-width="1" fill="none" fill-rule="evenodd" sketch:type="MSPage">
        <g id="desktop---lister---filter-selected" sketch:type="MSArtboardGroup" transform="translate(-472.000000, -569.000000)" fill="#ABABAB">
            <g id="Group-+-Group-+-Group-Copy-2" sketch:type="MSLayerGroup" transform="translate(255.000000, 547.000000)">
                <g id="Group" sketch:type="MSShapeGroup">
                    <path d="M225.548078,37.005805 L225.548078,37.005805 L225.545292,37.0030086 C225.919668,37.3773844 226.420037,37.5748987 226.973257,37.5682967 C227.498118,37.5756273 227.998812,37.3778726 228.376174,37.001202 L234.672336,30.7371739 C236.442555,28.9669548 236.442555,26.09708 234.672336,24.3268609 C232.903188,22.557713 230.033313,22.557713 228.258694,24.3322895 L227.698422,24.8839916 L226.992726,25.578893 L226.291051,24.8799319 L225.735835,24.3268609 C223.966687,22.557713 221.096812,22.557713 219.327664,24.3268609 C217.557445,26.09708 217.557445,28.9658836 219.33045,30.7388992 L225.548078,37.005805 Z M224.838185,37.7101152 L224.838185,37.7101152 L218.620558,31.4432095 C216.459814,29.2824661 216.459814,25.7804975 218.620558,23.6197541 C220.78023,21.460082 224.28327,21.460082 226.442942,23.6197541 L226.996786,24.1714562 L227.557058,23.6197541 C229.71673,21.460082 233.21977,21.460082 235.379442,23.6197541 C237.540186,25.7804975 237.540186,29.2835373 235.379442,31.4442807 L229.08147,37.7101152 C228.495487,38.2950266 227.726318,38.578912 226.959292,38.5681992 C226.192266,38.5778408 225.423097,38.2950266 224.838185,37.7101152 L224.838185,37.7101152 Z" id="Shape"></path>
                </g>
            </g>
        </g>
    </g>
</svg>